<svg width="19" height="19" viewBox="0 0 19 19" fill="none" xmlns="http://www.w3.org/2000/svg">
<g clip-path="url(#clip0_431_797)">
<path fill-rule="evenodd" clip-rule="evenodd" d="M0.75 2.39062C0.75 2.24558 0.807617 2.10648 0.910176 2.00393C1.01273 1.90137 1.15183 1.84375 1.29688 1.84375H2.9375C3.05949 1.84378 3.17796 1.8846 3.27408 1.95971C3.3702 2.03483 3.43845 2.13992 3.46797 2.25828L3.91094 4.03125H16.6094C16.6903 4.0313 16.7701 4.04929 16.8432 4.08392C16.9163 4.11855 16.9808 4.16896 17.0321 4.23151C17.0833 4.29407 17.1201 4.36722 17.1396 4.44569C17.1592 4.52417 17.1612 4.606 17.1453 4.68531L16.0516 10.1541C16.0276 10.2733 15.9646 10.3812 15.8725 10.4606C15.7804 10.5401 15.6644 10.5865 15.543 10.5927L5.265 11.1089L5.57891 12.7812H14.9688C15.1138 12.7812 15.2529 12.8389 15.3554 12.9414C15.458 13.044 15.5156 13.1831 15.5156 13.3281C15.5156 13.4732 15.458 13.6123 15.3554 13.7148C15.2529 13.8174 15.1138 13.875 14.9688 13.875H5.125C4.9975 13.8749 4.87406 13.8302 4.776 13.7487C4.67794 13.6673 4.61143 13.5541 4.58797 13.4288L2.94844 4.69516L2.51094 2.9375H1.29688C1.15183 2.9375 1.01273 2.87988 0.910176 2.77732C0.807617 2.67477 0.75 2.53567 0.75 2.39062ZM4.14281 5.125L5.06156 10.0239L15.0628 9.52188L15.9422 5.125H4.14281ZM6.21875 13.875C5.63859 13.875 5.08219 14.1055 4.67195 14.5157C4.26172 14.9259 4.03125 15.4823 4.03125 16.0625C4.03125 16.6427 4.26172 17.1991 4.67195 17.6093C5.08219 18.0195 5.63859 18.25 6.21875 18.25C6.79891 18.25 7.35531 18.0195 7.76555 17.6093C8.17578 17.1991 8.40625 16.6427 8.40625 16.0625C8.40625 15.4823 8.17578 14.9259 7.76555 14.5157C7.35531 14.1055 6.79891 13.875 6.21875 13.875ZM13.875 13.875C13.2948 13.875 12.7384 14.1055 12.3282 14.5157C11.918 14.9259 11.6875 15.4823 11.6875 16.0625C11.6875 16.6427 11.918 17.1991 12.3282 17.6093C12.7384 18.0195 13.2948 18.25 13.875 18.25C14.4552 18.25 15.0116 18.0195 15.4218 17.6093C15.832 17.1991 16.0625 16.6427 16.0625 16.0625C16.0625 15.4823 15.832 14.9259 15.4218 14.5157C15.0116 14.1055 14.4552 13.875 13.875 13.875ZM6.21875 14.9688C5.92867 14.9688 5.65047 15.084 5.44535 15.2891C5.24023 15.4942 5.125 15.7724 5.125 16.0625C5.125 16.3526 5.24023 16.6308 5.44535 16.8359C5.65047 17.041 5.92867 17.1562 6.21875 17.1562C6.50883 17.1562 6.78703 17.041 6.99215 16.8359C7.19727 16.6308 7.3125 16.3526 7.3125 16.0625C7.3125 15.7724 7.19727 15.4942 6.99215 15.2891C6.78703 15.084 6.50883 14.9688 6.21875 14.9688ZM13.875 14.9688C13.5849 14.9688 13.3067 15.084 13.1016 15.2891C12.8965 15.4942 12.7812 15.7724 12.7812 16.0625C12.7812 16.3526 12.8965 16.6308 13.1016 16.8359C13.3067 17.041 13.5849 17.1562 13.875 17.1562C14.1651 17.1562 14.4433 17.041 14.6484 16.8359C14.8535 16.6308 14.9688 16.3526 14.9688 16.0625C14.9688 15.7724 14.8535 15.4942 14.6484 15.2891C14.4433 15.084 14.1651 14.9688 13.875 14.9688Z" fill="white"/>
</g>
<defs>
<clipPath id="clip0_431_797">
<rect width="17.5" height="17.5" fill="white" transform="translate(0.75 0.75)"/>
</clipPath>
</defs>
</svg>
