<svg width="32" height="26" viewBox="0 0 32 26" fill="none" xmlns="http://www.w3.org/2000/svg">
<path d="M32 7.47823V20.709C32.0001 22.058 31.4919 23.3558 30.5797 24.3364C29.6675 25.3169 28.4205 25.9057 27.0944 25.9821L26.8 25.9902H5.2C3.87178 25.9903 2.59387 25.4742 1.62843 24.5478C0.662987 23.6213 0.0831979 22.3548 0.00800018 21.008L0 20.709V7.47823L15.4432 15.6942C15.615 15.7856 15.8061 15.8334 16 15.8334C16.1939 15.8334 16.385 15.7856 16.5568 15.6942L32 7.47823ZM5.2 -0.00976559H26.8C28.0889 -0.00992327 29.332 0.476102 30.2881 1.35404C31.2441 2.23199 31.8451 3.43927 31.9744 4.74173L16 13.2405L0.0256001 4.74173C0.149637 3.49099 0.70888 2.3262 1.6028 1.45674C2.49672 0.587273 3.66669 0.0701632 4.9024 -0.0016404L5.2 -0.00976559H26.8H5.2Z" fill="#F87B11"/>
</svg>
