<svg width="32" height="32" viewBox="0 0 32 32" fill="none" xmlns="http://www.w3.org/2000/svg">
<g clip-path="url(#clip0_431_2456)">
<path d="M30.0976 18.7362C30.9891 17.9828 32 17.1291 32 15.9519C32 14.7747 30.9887 13.9214 30.098 13.1681C29.533 12.6907 28.949 12.199 28.8158 11.7877C28.6713 11.3423 28.858 10.5734 29.0371 9.83049C29.319 8.66549 29.6105 7.4612 28.9444 6.54397C28.2702 5.61994 26.9725 5.52176 25.8264 5.43543C25.068 5.37814 24.288 5.31914 23.9185 5.05029C23.5583 4.78777 23.2642 4.06934 22.9805 3.37417C22.5424 2.30228 22.046 1.0875 20.9454 0.730236C19.8845 0.385547 18.8387 1.02859 17.83 1.65127C17.1693 2.0575 16.4859 2.47838 16 2.47838C15.5141 2.47838 14.8307 2.05705 14.1697 1.65127C13.1584 1.0285 12.1152 0.387176 11.0546 0.730236C9.95361 1.0875 9.45771 2.30192 9.0199 3.37381C8.73548 4.06907 8.44219 4.78786 8.08158 5.05038C7.7121 5.31923 6.93005 5.37823 6.17371 5.43552C5.02762 5.51977 3.72986 5.62003 3.05568 6.54451C2.38956 7.45967 2.68113 8.66395 2.96302 9.83104C3.14255 10.5739 3.32879 11.3428 3.18418 11.7882C3.05107 12.1978 2.46793 12.6916 1.90244 13.1686C1.01036 13.9218 0 14.7754 0 15.9523C0 17.1291 1.01126 17.9832 1.90244 18.7366C2.46702 19.2135 3.05107 19.7056 3.18418 20.1165C3.3287 20.5623 3.14201 21.3308 2.96302 22.0737C2.68113 23.2387 2.38956 24.443 3.05568 25.3602C3.72986 26.2847 5.02762 26.3829 6.17371 26.4692C6.93214 26.5265 7.71246 26.5859 8.08203 26.8543C8.44228 27.1169 8.73594 27.8353 9.01999 28.5309C9.45816 29.6028 9.95415 30.8171 11.0551 31.1748C11.2531 31.2392 11.46 31.2718 11.6682 31.2713C12.5176 31.2713 13.3536 30.7556 14.1701 30.2542C14.8313 29.8471 15.5147 29.4262 16.0005 29.4262C16.4862 29.4262 17.1697 29.8476 17.8308 30.2542C18.842 30.8757 19.8861 31.5183 20.9454 31.1748C22.0464 30.8171 22.5427 29.6028 22.9805 28.5309C23.2644 27.8356 23.5582 27.1169 23.9188 26.8543C24.2879 26.5859 25.0699 26.5269 25.8258 26.4696C26.9723 26.3854 28.2718 26.2851 28.9439 25.3607C29.61 24.445 29.3184 23.2412 29.037 22.0741C28.8571 21.3309 28.6712 20.5623 28.8157 20.1169C28.9489 19.7069 29.533 19.2131 30.0976 18.7362ZM27.4153 19.661C27.1418 20.5037 27.3778 21.4779 27.6057 22.4209C27.7991 23.2215 28.0187 24.1265 27.7536 24.4906C27.4822 24.863 26.5443 24.9338 25.7168 24.9961C24.7553 25.069 23.7609 25.1437 23.053 25.6589C22.3532 26.1679 21.979 27.0844 21.6171 27.97C21.3006 28.7449 20.9429 29.623 20.4916 29.7697C20.0808 29.9011 19.2967 29.4208 18.6057 28.9952C17.7663 28.4808 16.9034 27.9478 16 27.9478C15.0966 27.9478 14.2303 28.4795 13.3965 28.9944C12.7055 29.42 11.9217 29.8999 11.5101 29.7688C11.0601 29.6222 10.7015 28.7441 10.3846 27.9692C10.0231 27.0844 9.64856 26.1671 8.94905 25.6581C8.24121 25.1428 7.24633 25.0682 6.28439 24.9949C5.45728 24.9321 4.51932 24.8618 4.24802 24.4893C3.98342 24.1248 4.20295 23.219 4.39634 22.4192C4.62429 21.4761 4.85984 20.5016 4.58683 19.6598C4.32394 18.8504 3.57556 18.2192 2.85424 17.6087C2.20785 17.0609 1.47477 16.4432 1.47477 15.9506C1.47477 15.4581 2.20749 14.8391 2.85388 14.2931C3.57647 13.6825 4.32394 13.0513 4.58692 12.2415C4.86039 11.3988 4.62438 10.425 4.39643 9.48246C4.20304 8.68187 3.98351 7.77639 4.24811 7.41234C4.5195 7.03987 5.45737 6.9691 6.28448 6.90675C7.24642 6.83382 8.24121 6.75925 8.94914 6.24353C9.64856 5.73451 10.0232 4.81853 10.3847 3.93288C10.7015 3.15799 11.0589 2.27948 11.5105 2.13324C11.5615 2.11759 11.6144 2.10989 11.6677 2.11053C12.1026 2.11053 12.7856 2.53186 13.3952 2.90768C14.2308 3.42213 15.095 3.95387 15.9984 3.95387C16.9018 3.95387 17.7663 3.42503 18.6031 2.9085C19.2941 2.48254 20.0749 2.00175 20.4899 2.13406C20.9395 2.28029 21.2985 3.1588 21.6154 3.9336C21.9773 4.81844 22.3514 5.73532 23.051 6.24425C23.7588 6.75997 24.7537 6.83418 25.7156 6.90748C26.5427 6.97028 27.4807 7.04104 27.752 7.41306C28.0166 7.77757 27.7975 8.6834 27.6037 9.48354C27.3757 10.4261 27.1402 11.4007 27.4132 12.2426C27.6761 13.0524 28.4244 13.6836 29.1462 14.2942C29.7926 14.8419 30.5253 15.4592 30.5253 15.9517C30.5253 16.4443 29.7926 17.0632 29.1458 17.6097C28.4231 18.2204 27.6761 18.8516 27.4153 19.661Z" fill="white"/>
<path d="M19.3793 11.3161L14.6652 16.0301L12.6208 13.9857C11.6741 13.0395 10.1397 13.0399 9.19354 13.9865C8.24734 14.9332 8.24771 16.4676 9.19435 17.4138L12.952 21.1714C13.8983 22.1174 15.4321 22.1174 16.3784 21.1714L22.8057 14.742C23.7589 13.8029 23.7704 12.2689 22.8312 11.3157C21.8921 10.3625 20.3581 10.351 19.405 11.2902C19.3964 11.2989 19.3878 11.3075 19.3793 11.3161ZM21.7629 13.6993L15.3356 20.1266C14.9608 20.4856 14.3697 20.4856 13.9948 20.1266L10.2368 16.3686C9.86681 15.9984 9.86699 15.3982 10.2373 15.0283C10.6075 14.6582 11.2076 14.6584 11.5776 15.0287L14.1428 17.5943C14.4307 17.882 14.8973 17.882 15.1852 17.5943L20.4209 12.3577C20.7846 11.9811 21.3848 11.9705 21.7615 12.3342C22.1382 12.6979 22.1487 13.298 21.785 13.6748C21.7774 13.6826 21.7696 13.6904 21.7617 13.6981L21.7629 13.6993Z" fill="white"/>
</g>
<defs>
<clipPath id="clip0_431_2456">
<rect width="32" height="32" fill="white"/>
</clipPath>
</defs>
</svg>
