<svg width="13" height="8" viewBox="0 0 13 8" fill="none" xmlns="http://www.w3.org/2000/svg">
<path fill-rule="evenodd" clip-rule="evenodd" d="M0.543109 0.855547C0.586651 0.811894 0.638378 0.77726 0.695327 0.753629C0.752276 0.729998 0.813327 0.717834 0.874983 0.717834C0.93664 0.717834 0.997692 0.729998 1.05464 0.753629C1.11159 0.77726 1.16332 0.811894 1.20686 0.855547L6.49998 6.14961L11.7931 0.855547C11.8367 0.811965 11.8884 0.777393 11.9454 0.753806C12.0023 0.73022 12.0633 0.71808 12.125 0.71808C12.1866 0.71808 12.2476 0.73022 12.3046 0.753806C12.3615 0.777393 12.4133 0.811965 12.4569 0.855547C12.5004 0.89913 12.535 0.950869 12.5586 1.00781C12.5822 1.06476 12.5943 1.12579 12.5943 1.18742C12.5943 1.24906 12.5822 1.31009 12.5586 1.36703C12.535 1.42398 12.5004 1.47571 12.4569 1.5193L6.83186 7.1443C6.78832 7.18795 6.73659 7.22258 6.67964 7.24622C6.62269 7.26985 6.56164 7.28201 6.49998 7.28201C6.43833 7.28201 6.37728 7.26985 6.32033 7.24622C6.26338 7.22258 6.21165 7.18795 6.16811 7.1443L0.543109 1.5193C0.499455 1.47575 0.464822 1.42403 0.44119 1.36708C0.417559 1.31013 0.405396 1.24908 0.405396 1.18742C0.405396 1.12577 0.417559 1.06471 0.44119 1.00777C0.464822 0.950817 0.499455 0.89909 0.543109 0.855547V0.855547Z" fill="#333333"/>
</svg>
