<svg width="42" height="40" viewBox="0 0 42 40" fill="none" xmlns="http://www.w3.org/2000/svg">
<path d="M17.5028 2.5626C18.613 -0.854206 23.4468 -0.854197 24.557 2.56261L26.9334 9.87647C27.4299 11.4045 28.8539 12.4391 30.4606 12.4391H38.1508C41.7435 12.4391 43.2372 17.0364 40.3307 19.1481L34.1091 23.6683C32.8093 24.6127 32.2654 26.2866 32.7619 27.8147L35.1383 35.1285C36.2485 38.5453 32.3378 41.3866 29.4313 39.2749L23.2098 34.7547C21.9099 33.8103 20.1498 33.8103 18.85 34.7547L12.6285 39.2749C9.72196 41.3866 5.81128 38.5453 6.92147 35.1285L9.29789 27.8147C9.79438 26.2866 9.25048 24.6127 7.95065 23.6683L1.7291 19.1481C-1.17741 17.0364 0.316345 12.4391 3.90899 12.4391H11.5992C13.2059 12.4391 14.6299 11.4045 15.1264 9.87647L17.5028 2.5626Z" fill="white"/>
</svg>
