<svg width="43" height="40" viewBox="0 0 43 40" fill="none" xmlns="http://www.w3.org/2000/svg">
<path d="M18.1562 2.5626C19.2664 -0.854206 24.1003 -0.854197 25.2105 2.56261L27.5869 9.87647C28.0834 11.4045 29.5073 12.4391 31.114 12.4391H38.8043C42.3969 12.4391 43.8906 17.0364 40.9841 19.1481L34.7626 23.6683C33.4628 24.6127 32.9189 26.2866 33.4154 27.8147L35.7918 35.1285C36.902 38.5453 32.9913 41.3866 30.0848 39.2749L23.8632 34.7547C22.5634 33.8103 20.8033 33.8103 19.5035 34.7547L13.2819 39.2749C10.3754 41.3866 6.46473 38.5453 7.57491 35.1285L9.95133 27.8147C10.4478 26.2866 9.90392 24.6127 8.60409 23.6683L2.38254 19.1481C-0.523968 17.0364 0.969787 12.4391 4.56243 12.4391H12.2527C13.8594 12.4391 15.2833 11.4045 15.7798 9.87647L18.1562 2.5626Z" fill="#FFD027"/>
</svg>
