<svg width="77" height="78" viewBox="0 0 77 78" fill="none" xmlns="http://www.w3.org/2000/svg">
<circle cx="38.0461" cy="39" r="38.0461" fill="white"/>
<path d="M40.4095 42.8969C40.4095 44.2406 39.3286 45.3339 38 45.3339C36.6714 45.3339 35.5905 44.2406 35.5905 42.8969V20.0108C35.5905 18.6671 36.6714 17.5738 38 17.5738C39.3286 17.5738 40.4095 18.6671 40.4095 20.0108V42.8969ZM38 14.9539C35.243 14.9539 33 17.2224 33 20.0108V42.8969C33 45.6853 35.243 47.9539 38 47.9539C40.757 47.9539 43 45.6853 43 42.8969V20.0108C43 17.2224 40.757 14.9539 38 14.9539Z" fill="#2AA144"/>
<path d="M40.4095 42.8969C40.4095 44.2406 39.3286 45.3339 38 45.3339C36.6714 45.3339 35.5905 44.2406 35.5905 42.8969V20.0108C35.5905 18.6671 36.6714 17.5738 38 17.5738C39.3286 17.5738 40.4095 18.6671 40.4095 20.0108V42.8969Z" fill="#2AA144"/>
<path d="M38 60.3634C36.6713 60.3634 35.5905 59.2825 35.5905 57.9539C35.5905 56.6252 36.6713 55.5443 38 55.5443C39.3287 55.5443 40.4095 56.6252 40.4095 57.9539C40.4095 59.2825 39.3287 60.3634 38 60.3634ZM38 52.9539C35.2429 52.9539 33 55.1969 33 57.9539C33 60.7109 35.2429 62.9539 38 62.9539C40.7571 62.9539 43 60.7109 43 57.9539C43 55.1969 40.7571 52.9539 38 52.9539Z" fill="#2AA144"/>
<path d="M38 60.3634C36.6713 60.3634 35.5905 59.2825 35.5905 57.9539C35.5905 56.6252 36.6713 55.5443 38 55.5443C39.3287 55.5443 40.4095 56.6252 40.4095 57.9539C40.4095 59.2825 39.3287 60.3634 38 60.3634Z" fill="#2AA144"/>
</svg>
