<svg width="22" height="14" viewBox="0 0 22 14" fill="none" xmlns="http://www.w3.org/2000/svg">
<path fill-rule="evenodd" clip-rule="evenodd" d="M0.5 7.00021C0.5 6.8013 0.579018 6.61054 0.71967 6.46989C0.860322 6.32923 1.05109 6.25021 1.25 6.25021H18.9395L14.219 1.53122C14.0782 1.39039 13.9991 1.19938 13.9991 1.00021C13.9991 0.801051 14.0782 0.610045 14.219 0.469215C14.3598 0.328385 14.5508 0.249268 14.75 0.249268C14.9492 0.249268 15.1402 0.328385 15.281 0.469215L21.281 6.46921C21.3508 6.53888 21.4063 6.62165 21.4441 6.71276C21.4819 6.80388 21.5013 6.90156 21.5013 7.00021C21.5013 7.09887 21.4819 7.19655 21.4441 7.28766C21.4063 7.37878 21.3508 7.46155 21.281 7.53121L15.281 13.5312C15.1402 13.672 14.9492 13.7512 14.75 13.7512C14.5508 13.7512 14.3598 13.672 14.219 13.5312C14.0782 13.3904 13.9991 13.1994 13.9991 13.0002C13.9991 12.8011 14.0782 12.61 14.219 12.4692L18.9395 7.75021H1.25C1.05109 7.75021 0.860322 7.6712 0.71967 7.53055C0.579018 7.38989 0.5 7.19913 0.5 7.00021Z" fill="white"/>
</svg>
