<svg width="21" height="14" viewBox="0 0 21 14" fill="none" xmlns="http://www.w3.org/2000/svg">
<path fill-rule="evenodd" clip-rule="evenodd" d="M21 7.00021C21 6.8013 20.921 6.61054 20.7803 6.46989C20.6397 6.32923 20.4489 6.25021 20.25 6.25021H2.5605L7.281 1.53122C7.42183 1.39039 7.50095 1.19938 7.50095 1.00021C7.50095 0.801051 7.42183 0.610045 7.281 0.469215C7.14017 0.328385 6.94916 0.249268 6.75 0.249268C6.55084 0.249268 6.35983 0.328385 6.219 0.469215L0.219 6.46921C0.149155 6.53888 0.0937405 6.62165 0.0559311 6.71276C0.0181217 6.80388 -0.00134087 6.90156 -0.00134087 7.00021C-0.00134087 7.09887 0.0181217 7.19655 0.0559311 7.28766C0.0937405 7.37878 0.149155 7.46155 0.219 7.53121L6.219 13.5312C6.35983 13.672 6.55084 13.7512 6.75 13.7512C6.94916 13.7512 7.14017 13.672 7.281 13.5312C7.42183 13.3904 7.50095 13.1994 7.50095 13.0002C7.50095 12.8011 7.42183 12.61 7.281 12.4692L2.5605 7.75021H20.25C20.4489 7.75021 20.6397 7.6712 20.7803 7.53055C20.921 7.38989 21 7.19913 21 7.00021Z" fill="white"/>
</svg>
